<svg xmlns="http://www.w3.org/2000/svg" width="596" height="592" viewBox="0 0 596 592" version="1.1"><path d="M 455 106.895 C 453.423 107.333, 452.500 108.312, 452.500 109.545 C 452.500 116.116, 454.301 164.164, 455.516 190 C 456.305 206.775, 457.426 233.775, 458.008 250 C 458.589 266.225, 459.479 287.825, 459.985 298 C 460.490 308.175, 461.168 325.050, 461.491 335.500 C 461.814 345.950, 462.313 356.413, 462.600 358.750 L 463.123 363 491.061 363 L 519 363 519 358.704 C 519 356.341, 519.447 345.204, 519.992 333.954 C 520.538 322.704, 521.668 295.275, 522.502 273 C 524.537 218.717, 527.033 159.585, 529.383 110.027 C 529.476 108.053, 528.895 107.422, 526.500 106.896 C 522.480 106.013, 458.174 106.012, 455 106.895 M 72.510 121.125 C 72.222 121.881, 72.102 196.075, 72.243 286 L 72.500 449.500 158 449.500 C 242.773 449.500, 243.619 449.480, 257.500 447.177 C 298.839 440.319, 323.985 428.929, 346.136 407.027 C 369.950 383.481, 382.423 353.269, 386.959 308.144 C 390.795 269.982, 383.902 224.536, 370.093 196.946 C 360.440 177.659, 344.460 159.479, 326.880 147.781 C 307.221 134.701, 278.532 125.438, 247 121.991 C 241.755 121.418, 200.672 120.684, 155.267 120.352 C 86.013 119.845, 72.950 119.967, 72.510 121.125 M 184.744 199.711 L 177.989 200.092 178.244 285.296 L 178.500 370.500 202.262 370.314 C 227.528 370.116, 235.517 368.958, 246.912 363.843 C 262.890 356.671, 273.966 340.785, 277.576 319.866 C 279.853 306.673, 279.139 252.456, 276.570 243.500 C 274.079 234.812, 268.689 224.200, 264.053 218.855 C 256.249 209.858, 242.732 203.030, 229 201.150 C 220.441 199.978, 194.797 199.144, 184.744 199.711 M 478 388.608 C 468.448 391.173, 462.742 394.423, 456.212 401.020 C 444.380 412.976, 439.455 428.053, 441.899 444.842 C 444.191 460.583, 454.537 474.304, 469.642 481.634 C 477.024 485.216, 478.166 485.470, 488.500 485.821 C 500.896 486.243, 508.474 484.409, 517.132 478.894 C 530.554 470.344, 538.688 456.614, 539.710 440.784 C 540.379 430.443, 538.900 421.758, 535.154 414.012 C 531.818 407.115, 521.070 396.057, 514.500 392.765 C 503.547 387.276, 489.094 385.630, 478 388.608" stroke="none" fill="#fafafb" fill-rule="evenodd"/><path d="M -0 296.002 L -0 592.003 298.250 591.752 L 596.500 591.500 596.752 295.750 L 597.003 0 298.502 0 L 0 0 -0 296.002 M 0.493 296.500 C 0.493 459.300, 0.609 525.751, 0.750 444.169 C 0.891 362.587, 0.891 229.387, 0.750 148.169 C 0.609 66.951, 0.493 133.700, 0.493 296.500 M 455 106.895 C 453.423 107.333, 452.500 108.312, 452.500 109.545 C 452.500 116.116, 454.301 164.164, 455.516 190 C 456.305 206.775, 457.426 233.775, 458.008 250 C 458.589 266.225, 459.479 287.825, 459.985 298 C 460.490 308.175, 461.168 325.050, 461.491 335.500 C 461.814 345.950, 462.313 356.413, 462.600 358.750 L 463.123 363 491.061 363 L 519 363 519 358.704 C 519 356.341, 519.447 345.204, 519.992 333.954 C 520.538 322.704, 521.668 295.275, 522.502 273 C 524.537 218.717, 527.033 159.585, 529.383 110.027 C 529.476 108.053, 528.895 107.422, 526.500 106.896 C 522.480 106.013, 458.174 106.012, 455 106.895 M 72.510 121.125 C 72.222 121.881, 72.102 196.075, 72.243 286 L 72.500 449.500 158 449.500 C 242.773 449.500, 243.619 449.480, 257.500 447.177 C 298.839 440.319, 323.985 428.929, 346.136 407.027 C 369.950 383.481, 382.423 353.269, 386.959 308.144 C 390.795 269.982, 383.902 224.536, 370.093 196.946 C 360.440 177.659, 344.460 159.479, 326.880 147.781 C 307.221 134.701, 278.532 125.438, 247 121.991 C 241.755 121.418, 200.672 120.684, 155.267 120.352 C 86.013 119.845, 72.950 119.967, 72.510 121.125 M 184.744 199.711 L 177.989 200.092 178.244 285.296 L 178.500 370.500 202.262 370.314 C 227.528 370.116, 235.517 368.958, 246.912 363.843 C 262.890 356.671, 273.966 340.785, 277.576 319.866 C 279.853 306.673, 279.139 252.456, 276.570 243.500 C 274.079 234.812, 268.689 224.200, 264.053 218.855 C 256.249 209.858, 242.732 203.030, 229 201.150 C 220.441 199.978, 194.797 199.144, 184.744 199.711 M 478 388.608 C 468.448 391.173, 462.742 394.423, 456.212 401.020 C 444.380 412.976, 439.455 428.053, 441.899 444.842 C 444.191 460.583, 454.537 474.304, 469.642 481.634 C 477.024 485.216, 478.166 485.470, 488.500 485.821 C 500.896 486.243, 508.474 484.409, 517.132 478.894 C 530.554 470.344, 538.688 456.614, 539.710 440.784 C 540.379 430.443, 538.900 421.758, 535.154 414.012 C 531.818 407.115, 521.070 396.057, 514.500 392.765 C 503.547 387.276, 489.094 385.630, 478 388.608" stroke="none" fill="#2b3a84" fill-rule="evenodd"/></svg>